<?xml version="1.0" standalone="no"?>
<!DOCTYPE svg PUBLIC "-//W3C//DTD SVG 20010904//EN"
 "http://www.w3.org/TR/2001/REC-SVG-20010904/DTD/svg10.dtd">
<svg version="1.0" xmlns="http://www.w3.org/2000/svg"
 width="785.000000pt" height="800.000000pt" viewBox="0 0 785.000000 800.000000"
 preserveAspectRatio="xMidYMid meet">

<g transform="translate(0.000000,800.000000) scale(0.100000,-0.100000)"
fill="#000000" stroke="none">
<path d="M3898 7981 c-89 -45 -142 -106 -174 -203 -16 -49 -16 -51 4 -70 28
-28 69 -18 78 20 19 81 68 137 159 183 33 16 44 51 25 75 -16 19 -47 17 -92
-5z"/>
<path d="M3427 7962 c-25 -28 -21 -46 23 -97 21 -25 47 -68 57 -96 26 -75 76
-99 103 -49 22 42 -103 260 -149 260 -10 0 -25 -8 -34 -18z"/>
<path d="M3981 7793 c-51 -27 -61 -48 -34 -74 20 -20 25 -21 66 -9 51 14 426
9 647 -9 234 -18 546 -90 634 -146 11 -7 46 -23 76 -36 69 -28 136 -75 220
-153 36 -34 139 -117 229 -186 90 -69 192 -147 225 -175 78 -64 233 -223 293
-300 26 -33 78 -97 116 -143 38 -46 120 -158 183 -249 63 -91 125 -180 138
-197 13 -17 48 -71 76 -121 29 -49 76 -121 105 -160 93 -124 219 -371 259
-504 7 -25 30 -86 51 -136 45 -108 116 -322 144 -431 11 -43 38 -179 61 -301
37 -203 78 -374 145 -618 31 -111 77 -375 105 -595 19 -145 22 -253 31 -890 9
-649 9 -740 -6 -870 -21 -188 -70 -438 -102 -520 -58 -152 -176 -373 -251
-473 -129 -171 -216 -273 -244 -290 -45 -26 -33 -87 17 -87 48 0 90 45 289
309 69 90 114 165 169 275 99 200 123 263 157 420 69 311 78 543 61 1456 -9
451 -14 573 -31 705 -32 242 -86 519 -135 693 -52 186 -74 283 -114 503 -16
90 -39 207 -51 259 -23 103 -110 372 -157 485 -17 39 -38 95 -48 125 -53 163
-167 388 -275 540 -37 52 -85 127 -108 165 -22 39 -60 97 -84 130 -24 33 -61
85 -81 115 -196 298 -476 630 -653 775 -33 28 -135 106 -225 175 -90 69 -195
155 -234 191 -95 89 -140 118 -303 194 -152 70 -191 82 -398 120 -215 39 -283
45 -619 51 -287 5 -313 4 -344 -13z"/>
<path d="M3051 7689 c-52 -11 -133 -35 -180 -53 -47 -18 -145 -52 -218 -75
-88 -27 -219 -83 -390 -165 -142 -68 -296 -138 -343 -156 -119 -45 -227 -102
-355 -189 -60 -41 -156 -106 -213 -144 -57 -38 -143 -108 -190 -156 -48 -47
-118 -112 -155 -145 -88 -76 -129 -131 -222 -301 -144 -261 -171 -322 -209
-470 -20 -77 -51 -198 -70 -270 -18 -71 -55 -247 -81 -390 -26 -143 -67 -341
-91 -440 -25 -99 -51 -223 -60 -275 -8 -52 -20 -115 -25 -140 -31 -139 -53
-355 -84 -838 -8 -127 -24 -312 -35 -410 -11 -97 -38 -341 -60 -542 -22 -201
-45 -401 -50 -445 -19 -141 -24 -442 -10 -581 15 -156 39 -255 120 -486 98
-280 231 -488 455 -714 145 -145 208 -194 265 -201 33 -5 40 -2 55 20 21 33 6
67 -30 67 -35 0 -105 57 -234 188 -183 188 -329 406 -396 592 -131 364 -149
456 -149 755 0 182 6 269 32 505 112 984 115 1011 137 1355 21 328 41 537 65
660 11 55 27 145 36 200 9 55 34 170 55 255 21 85 62 279 89 430 28 151 71
354 96 450 25 96 56 216 69 265 29 114 26 108 164 364 129 239 133 243 381
468 210 191 519 392 730 475 69 27 193 82 275 123 254 124 304 145 510 217
291 101 360 118 500 125 66 3 126 10 133 15 15 13 16 50 0 66 -19 19 -208 13
-317 -9z"/>
<path d="M3210 5905 c-25 -30 31 -272 86 -375 13 -25 53 -103 88 -175 34 -71
87 -166 117 -210 30 -44 62 -97 73 -117 19 -37 310 -334 376 -383 62 -47 108
-67 129 -56 46 25 32 70 -32 102 -54 28 -372 342 -399 394 -11 22 -49 83 -83
135 -35 52 -77 128 -93 168 -17 41 -49 104 -71 140 -48 81 -78 171 -93 277 -7
44 -18 88 -26 98 -18 21 -55 22 -72 2z"/>
<path d="M4970 5755 c-16 -19 1 -112 36 -200 32 -82 136 -275 186 -349 23 -34
64 -92 90 -131 58 -86 162 -206 204 -237 17 -13 74 -70 126 -128 167 -185 262
-256 445 -331 109 -45 238 -64 268 -39 39 32 4 80 -59 80 -60 0 -136 24 -251
80 -119 59 -198 122 -323 261 -52 57 -110 118 -131 134 -171 138 -501 666
-501 802 0 59 -58 96 -90 58z"/>
<path d="M2342 5688 c-47 -51 -102 -251 -102 -375 0 -205 40 -509 81 -612 43
-109 77 -155 117 -159 26 -3 34 1 43 21 10 22 8 30 -14 59 -67 87 -103 217
-117 423 -5 72 -12 165 -16 207 -10 116 39 343 81 378 21 18 18 57 -4 70 -29
15 -45 12 -69 -12z"/>
<path d="M1116 4285 c-69 -28 -131 -84 -156 -140 -19 -42 -60 -226 -60 -270 0
-14 16 -67 36 -118 72 -187 129 -232 310 -244 l81 -5 43 -102 c149 -349 229
-499 357 -671 137 -183 242 -285 363 -352 19 -11 60 -34 90 -51 67 -37 426
-163 564 -198 127 -31 372 -106 495 -150 51 -18 139 -45 195 -60 90 -23 268
-100 319 -138 32 -25 10 -65 -89 -161 -193 -186 -377 -351 -432 -386 -62 -40
-166 -143 -227 -227 -22 -28 -42 -52 -46 -52 -4 0 -64 -61 -134 -135 -120
-127 -127 -137 -117 -160 8 -18 20 -25 39 -25 22 0 55 28 170 146 79 80 163
171 187 202 49 64 84 98 91 90 3 -3 31 19 63 48 133 126 202 184 217 184 8 0
15 6 15 13 0 7 13 26 30 42 27 26 31 27 47 12 24 -21 55 -32 198 -73 222 -64
324 -75 455 -50 106 21 368 95 410 116 19 10 65 33 102 50 38 19 70 41 74 52
5 18 7 18 33 1 137 -88 151 -99 349 -257 48 -38 191 -173 318 -300 242 -242
386 -414 443 -529 18 -36 40 -68 48 -71 20 -8 63 19 63 39 0 19 -61 140 -92
182 -103 140 -180 228 -377 426 -283 285 -474 443 -741 612 -44 28 -122 81
-175 119 -94 67 -95 69 -95 110 1 59 34 124 92 179 35 33 59 47 79 47 15 0 31
5 34 10 3 6 30 10 60 10 59 0 164 20 265 50 36 11 115 29 175 40 140 27 275
73 345 120 30 20 77 49 105 65 27 16 70 47 95 70 25 23 65 56 90 73 56 41 205
187 254 250 20 26 52 67 71 92 19 25 45 65 58 90 22 42 124 339 162 473 16 57
16 57 55 57 59 0 222 36 267 59 128 65 203 199 203 364 0 65 -5 91 -31 153
-37 88 -77 128 -218 212 -93 55 -98 57 -179 61 -92 3 -122 -10 -122 -55 0 -33
15 -39 105 -39 l80 0 105 -70 c90 -60 109 -77 134 -124 63 -118 40 -278 -54
-372 -28 -28 -63 -52 -86 -58 -62 -18 -186 -41 -221 -41 -17 0 -38 -7 -47 -15
-8 -8 -21 -15 -29 -15 -8 0 -19 -6 -24 -12 -10 -14 -34 -90 -54 -172 -26 -105
-129 -379 -152 -405 -13 -14 -39 -48 -57 -74 -44 -66 -211 -239 -274 -284 -28
-20 -72 -56 -97 -79 -25 -23 -61 -50 -80 -59 -18 -10 -63 -37 -99 -60 -70 -46
-177 -84 -305 -110 -101 -20 -180 -39 -275 -66 -45 -12 -115 -22 -174 -24 -91
-4 -103 -7 -153 -37 -109 -66 -170 -152 -194 -271 -11 -55 -11 -59 12 -83 13
-14 23 -27 22 -30 -12 -19 12 -43 107 -111 60 -43 109 -81 110 -84 0 -4 -20
-14 -45 -23 -24 -10 -60 -28 -80 -42 -20 -13 -44 -24 -54 -24 -9 0 -37 -6 -62
-14 -225 -72 -363 -100 -447 -91 -100 12 -361 79 -415 107 -15 8 -4 22 79 101
100 96 144 162 144 218 0 31 -6 41 -61 97 -40 41 -203 117 -314 147 -55 15
-149 44 -210 65 -135 47 -370 118 -529 160 -66 18 -169 50 -230 72 -61 22
-138 49 -171 60 -97 32 -241 115 -335 193 -135 113 -336 389 -407 560 -13 33
-35 81 -49 108 -59 116 -144 328 -144 362 0 28 -5 38 -24 46 -20 9 -29 7 -54
-11 -26 -20 -39 -22 -90 -18 -122 12 -166 48 -218 180 -30 76 -30 133 -3 246
18 70 29 94 57 124 51 54 114 72 218 64 77 -6 84 -5 94 14 15 28 3 59 -27 71
-13 5 -61 9 -106 9 -64 0 -95 -6 -141 -25z"/>
<path d="M5116 4187 c-60 -34 -98 -87 -104 -146 -7 -78 5 -118 49 -166 128
-138 352 -53 352 134 0 32 -7 69 -16 86 -20 40 -75 91 -110 104 -48 19 -128
13 -171 -12z"/>
<path d="M2524 4171 c-79 -36 -136 -142 -119 -223 44 -212 334 -233 403 -29
57 167 -121 326 -284 252z"/>
<path d="M1198 3997 c-44 -14 -78 -41 -78 -60 0 -8 9 -22 20 -32 18 -16 25
-17 54 -7 18 7 55 12 83 12 55 0 83 17 83 49 0 10 -6 23 -13 29 -20 17 -109
23 -149 9z"/>
<path d="M6556 3944 c-23 -22 -20 -71 3 -84 11 -5 39 -10 62 -10 30 0 50 -6
66 -22 19 -18 27 -20 48 -10 39 18 34 64 -9 97 -26 20 -106 43 -153 45 -1 0
-9 -7 -17 -16z"/>
<path d="M4199 3345 c-62 -49 -122 -61 -196 -40 -32 9 -68 23 -81 31 -47 30
-111 -2 -86 -43 5 -10 41 -34 79 -53 62 -31 77 -35 149 -35 65 0 90 5 123 23
93 49 134 107 101 140 -20 20 -43 14 -89 -23z"/>
<path d="M1412 1248 c-17 -17 -15 -98 4 -219 22 -138 15 -372 -15 -479 -31
-115 -87 -246 -142 -330 -27 -42 -49 -84 -49 -91 0 -22 21 -39 46 -39 64 0
202 278 249 500 20 96 20 371 0 477 -8 43 -15 97 -15 120 0 60 -44 95 -78 61z"/>
<path d="M6677 1013 c-26 -30 -47 -184 -47 -349 0 -135 3 -165 29 -268 45
-178 89 -238 135 -187 17 19 17 22 -9 93 -68 188 -82 360 -48 587 16 110 16
114 -2 127 -25 18 -39 18 -58 -3z"/>
<path d="M6181 989 c-21 -8 -23 -14 -18 -47 4 -20 14 -62 23 -92 13 -41 18
-95 19 -210 l1 -155 30 -3 c21 -2 36 4 50 19 17 19 19 35 17 138 -2 168 -39
328 -80 349 -11 6 -28 6 -42 1z"/>
<path d="M2338 909 c-10 -5 -18 -18 -18 -28 0 -10 -9 -40 -21 -66 -52 -117
-65 -374 -28 -555 38 -188 74 -260 129 -260 52 0 64 36 26 81 -34 41 -78 226
-84 360 -6 150 11 267 54 358 32 69 33 75 19 97 -16 25 -48 30 -77 13z"/>
</g>
</svg>
