<?xml version="1.0" standalone="no"?>
<!DOCTYPE svg PUBLIC "-//W3C//DTD SVG 20010904//EN"
 "http://www.w3.org/TR/2001/REC-SVG-20010904/DTD/svg10.dtd">
<svg version="1.0" xmlns="http://www.w3.org/2000/svg"
 width="229.000000pt" height="357.000000pt" viewBox="0 0 229.000000 357.000000"
 preserveAspectRatio="xMidYMid meet">

<g transform="translate(0.000000,357.000000) scale(0.100000,-0.100000)"
fill="#000000" stroke="none">
<path d="M1016 3540 c-172 -20 -342 -78 -484 -166 -90 -56 -251 -212 -306
-297 -201 -309 -252 -711 -135 -1062 42 -126 104 -239 257 -469 73 -109 143
-219 156 -245 35 -68 66 -177 66 -228 0 -78 20 -123 80 -184 118 -119 369
-191 582 -168 183 20 331 80 418 168 60 60 80 106 80 182 0 114 47 214 220
474 206 308 269 443 306 655 21 122 14 355 -15 480 -87 380 -337 671 -684 795
-165 59 -371 84 -541 65z m399 -169 c465 -127 749 -565 704 -1084 -18 -213
-77 -353 -275 -647 -71 -107 -144 -220 -161 -250 -48 -85 -83 -194 -92 -289
-9 -84 -10 -87 -50 -122 -76 -68 -244 -119 -391 -119 -147 0 -315 51 -391 119
-40 35 -41 38 -50 122 -9 94 -44 202 -92 289 -17 30 -92 145 -166 255 -217
322 -270 457 -279 708 -7 224 25 376 113 544 142 269 376 437 695 497 14 2 99
3 190 1 132 -2 181 -7 245 -24z"/>
<path d="M921 3254 c-149 -44 -233 -95 -353 -214 -97 -95 -108 -110 -108 -142
0 -43 25 -68 67 -68 26 0 41 11 89 65 103 118 233 199 369 232 83 19 105 35
105 78 0 72 -47 86 -169 49z"/>
<path d="M672 2661 c-109 -41 -187 -121 -228 -236 -25 -72 -30 -250 -10 -340
22 -95 101 -251 183 -360 73 -97 262 -292 410 -423 120 -106 125 -106 235 -10
144 126 341 329 414 428 143 192 193 313 201 484 11 223 -59 368 -215 442 -46
22 -75 29 -150 32 -91 4 -95 3 -165 -31 -40 -20 -100 -61 -135 -92 l-62 -57
-64 59 c-97 89 -160 117 -271 120 -70 3 -102 -1 -143 -16z m227 -143 c26 -12
84 -60 134 -110 71 -71 93 -88 117 -88 24 0 46 17 117 88 102 102 155 132 234
132 142 -1 227 -98 237 -270 12 -214 -99 -413 -393 -704 -190 -189 -186 -185
-228 -154 -17 14 -95 88 -172 164 -285 282 -395 481 -383 694 6 96 28 158 74
204 67 67 177 85 263 44z"/>
<path d="M660 743 c-54 -20 -67 -79 -25 -117 45 -42 162 -96 263 -123 82 -21
120 -25 247 -26 219 0 378 41 498 128 40 30 47 40 47 70 0 39 -31 75 -65 75
-11 0 -38 -12 -58 -26 -108 -73 -232 -104 -415 -104 -166 0 -243 17 -367 80
-55 28 -102 50 -105 49 -3 0 -12 -3 -20 -6z"/>
<path d="M631 474 c-26 -33 -26 -54 -2 -86 23 -29 114 -78 187 -102 49 -16 51
-18 68 -73 50 -156 232 -239 384 -173 69 30 136 104 158 176 17 53 18 54 80
74 35 12 90 39 123 60 58 37 61 42 61 79 0 30 -6 44 -22 55 -32 23 -57 20
-108 -14 -90 -60 -225 -90 -403 -90 -182 0 -303 27 -408 92 -58 35 -91 36
-118 2z m649 -243 c0 -18 -71 -70 -104 -76 -43 -8 -96 8 -123 38 -43 47 -43
47 96 47 72 0 131 -4 131 -9z"/>
</g>
</svg>
