<?xml version="1.0" standalone="no"?>
<!DOCTYPE svg PUBLIC "-//W3C//DTD SVG 20010904//EN"
 "http://www.w3.org/TR/2001/REC-SVG-20010904/DTD/svg10.dtd">
<svg version="1.0" xmlns="http://www.w3.org/2000/svg"
 width="512.000000pt" height="387.000000pt" viewBox="0 0 512.000000 387.000000"
 preserveAspectRatio="xMidYMid meet">

<g transform="translate(0.000000,387.000000) scale(0.100000,-0.100000)"
fill="#000000" stroke="none">
<path d="M2504 3831 c-46 -28 -285 -262 -369 -361 -39 -47 -97 -120 -129 -162
-36 -47 -63 -75 -70 -71 -6 4 -58 38 -116 76 -126 82 -404 221 -553 276 -194
72 -204 68 -305 -126 -123 -239 -214 -499 -263 -753 -17 -85 -32 -160 -34
-166 -2 -7 -38 -7 -121 2 -66 6 -194 15 -285 19 -187 8 -215 2 -245 -57 -30
-57 -4 -419 46 -669 133 -655 517 -1193 1077 -1508 432 -243 1066 -358 1708
-311 701 53 1237 280 1631 691 405 424 612 944 640 1611 6 132 5 158 -10 186
-30 59 -58 65 -245 57 -91 -4 -219 -13 -285 -19 -83 -9 -119 -9 -121 -2 -2 6
-17 81 -34 166 -49 254 -140 514 -263 753 -101 194 -111 198 -305 126 -149
-55 -427 -194 -553 -276 -58 -38 -110 -72 -116 -76 -7 -4 -34 24 -70 71 -101
134 -197 243 -334 375 -141 137 -180 167 -220 167 -14 0 -39 -9 -56 -19z m197
-368 c154 -157 216 -233 321 -388 187 -277 303 -562 363 -890 25 -136 31 -432
11 -580 -60 -449 -254 -829 -587 -1151 -87 -84 -234 -204 -249 -204 -15 0
-162 120 -249 204 -333 322 -527 702 -587 1151 -20 148 -14 444 11 580 72 392
236 748 493 1070 57 72 320 345 332 345 4 0 67 -62 141 -137z m-1271 -176
c115 -55 339 -185 399 -233 2 -2 -19 -46 -47 -98 -98 -182 -174 -381 -218
-566 -13 -58 -26 -111 -29 -118 -3 -9 -23 -3 -72 22 -149 74 -391 161 -520
186 -75 15 -74 8 -38 185 44 220 124 455 220 645 l45 89 92 -38 c51 -22 127
-55 168 -74z m2565 23 c96 -190 176 -424 220 -645 36 -177 37 -170 -37 -185
-130 -25 -372 -112 -521 -186 -49 -25 -69 -31 -72 -22 -3 7 -16 60 -29 118
-44 185 -120 384 -218 566 -28 52 -49 96 -47 98 108 87 472 278 656 345 2 1
23 -39 48 -89z m-3514 -970 c238 -23 419 -60 599 -120 144 -48 207 -75 326
-141 l91 -50 0 -177 c2 -440 114 -816 351 -1171 90 -137 152 -213 281 -344
l96 -99 -40 6 c-22 3 -78 11 -125 17 -394 50 -756 191 -1046 405 -169 125
-386 370 -502 567 -165 280 -266 631 -288 998 l-7 119 81 0 c44 0 126 -5 183
-10z m4415 -109 c-22 -367 -123 -718 -288 -998 -116 -197 -333 -442 -502 -567
-290 -214 -652 -355 -1046 -405 -47 -6 -103 -14 -125 -17 l-40 -6 96 99 c129
131 191 207 281 344 237 355 349 732 351 1171 l0 177 91 50 c119 66 182 93
326 141 228 76 523 126 764 129 l99 1 -7 -119z"/>
</g>
</svg>
