<svg xmlns="http://www.w3.org/2000/svg" xmlns:xlink="http://www.w3.org/1999/xlink" width="480" height="300" viewBox="0 0 480 300"><rect width="100%" height="100%" fill="#DDDDDD"/><path d="M94.70 145.68L94.70 154.66L92.27 154.66L92.27 145.68L94.70 145.68ZM94.70 141.71L94.70 143.53L92.27 143.53L92.27 141.71L94.70 141.71ZM98.09 141.71L98.09 143.94L97.24 146.29L96.18 146.29L96.18 141.71L98.09 141.71ZM101.98 141.71L101.98 154.66L99.55 154.66L99.55 141.71L101.98 141.71ZM106.52 141.71L106.52 154.66L104.09 154.66L104.09 141.71L106.52 141.71ZM112.74 145.68L114.99 145.68L115.09 146.87Q115.53 146.22 116.18 145.87Q116.83 145.51 117.68 145.51L117.68 145.51Q118.55 145.51 119.16 145.90Q119.78 146.28 120.09 147.05L120.09 147.05Q120.51 146.33 121.17 145.92Q121.83 145.51 122.73 145.51L122.73 145.51Q124.06 145.51 124.83 146.43Q125.59 147.35 125.59 149.22L125.59 149.22L125.59 154.66L123.17 154.66L123.17 149.22Q123.17 148.19 122.84 147.80Q122.51 147.40 121.85 147.40L121.85 147.40Q121.34 147.40 120.96 147.63Q120.58 147.85 120.36 148.26L120.36 148.26Q120.36 148.42 120.36 148.53Q120.37 148.64 120.37 148.76L120.37 148.76L120.37 154.66L117.96 154.66L117.96 149.22Q117.96 148.22 117.63 147.81Q117.29 147.40 116.63 147.40L116.63 147.40Q116.14 147.40 115.77 147.58Q115.40 147.77 115.16 148.11L115.16 148.11L115.16 154.66L112.74 154.66L112.74 145.68ZM135.15 154.66L132.72 154.66Q132.59 154.35 132.50 154.01Q132.40 153.67 132.36 153.32L132.36 153.32Q131.99 153.97 131.38 154.40Q130.77 154.84 129.92 154.84L129.92 154.84Q128.51 154.84 127.74 154.11Q126.98 153.38 126.98 152.13L126.98 152.13Q126.98 150.81 128.00 150.08Q129.01 149.36 130.96 149.36L130.96 149.36L132.32 149.36L132.32 148.64Q132.32 148.00 131.98 147.64Q131.64 147.28 130.97 147.28L130.97 147.28Q130.38 147.28 130.06 147.57Q129.74 147.85 129.74 148.36L129.74 148.36L127.40 148.35L127.40 148.30Q127.34 147.17 128.38 146.34Q129.43 145.51 131.13 145.51L131.13 145.51Q132.74 145.51 133.75 146.33Q134.75 147.15 134.75 148.66L134.75 148.66L134.75 152.37Q134.75 153.00 134.85 153.56Q134.94 154.11 135.15 154.66L135.15 154.66ZM130.51 153.04L130.51 153.04Q131.15 153.04 131.65 152.73Q132.14 152.41 132.32 152.00L132.32 152.00L132.32 150.73L130.96 150.73Q130.19 150.73 129.79 151.11Q129.40 151.50 129.40 152.05L129.40 152.05Q129.40 152.49 129.69 152.77Q129.99 153.04 130.51 153.04ZM142.15 154.66L139.67 150.90L139.01 150.90L139.01 154.66L136.58 154.66L136.58 141.71L139.01 141.71L139.01 149.06L139.61 149.06L141.69 145.68L144.49 145.68L141.62 149.75L144.93 154.66L142.15 154.66ZM149.48 154.84L149.48 154.84Q147.53 154.84 146.37 153.59Q145.21 152.34 145.21 150.43L145.21 150.43L145.21 150.10Q145.21 148.09 146.31 146.80Q147.41 145.51 149.26 145.51L149.26 145.51Q151.08 145.51 152.08 146.61Q153.09 147.70 153.09 149.57L153.09 149.57L153.09 150.89L147.72 150.89L147.71 150.94Q147.77 151.83 148.30 152.40Q148.83 152.98 149.73 152.98L149.73 152.98Q150.54 152.98 151.07 152.81Q151.60 152.65 152.23 152.30L152.23 152.30L152.89 153.80Q152.34 154.25 151.45 154.54Q150.56 154.84 149.48 154.84ZM149.26 147.38L149.26 147.38Q148.59 147.38 148.20 147.90Q147.81 148.41 147.72 149.25L147.72 149.25L147.74 149.29L150.71 149.29L150.71 149.07Q150.71 148.30 150.35 147.84Q149.99 147.38 149.26 147.38ZM161.28 145.68L161.28 154.66L158.86 154.66L158.86 145.68L161.28 145.68ZM161.28 141.71L161.28 143.53L158.86 143.53L158.86 141.71L161.28 141.71ZM163.73 143.48L166.15 143.48L166.15 145.68L167.66 145.68L167.66 147.38L166.15 147.38L166.15 151.95Q166.15 152.48 166.37 152.70Q166.58 152.93 166.95 152.93L166.95 152.93Q167.14 152.93 167.28 152.91Q167.41 152.88 167.60 152.83L167.60 152.83L167.80 154.59Q167.44 154.71 167.09 154.77Q166.74 154.84 166.33 154.84L166.33 154.84Q165.08 154.84 164.40 154.15Q163.73 153.46 163.73 151.96L163.73 151.96L163.73 147.38L162.42 147.38L162.42 145.68L163.73 145.68L163.73 143.48ZM178.30 152.19L178.30 152.19Q178.30 151.79 177.91 151.50Q177.52 151.21 176.48 150.98L176.48 150.98Q174.88 150.66 174.07 150.02Q173.27 149.39 173.27 148.29L173.27 148.29Q173.27 147.13 174.24 146.32Q175.22 145.51 176.85 145.51L176.85 145.51Q178.57 145.51 179.59 146.32Q180.60 147.12 180.56 148.35L180.56 148.35L180.55 148.40L178.20 148.40Q178.20 147.86 177.86 147.52Q177.52 147.18 176.85 147.18L176.85 147.18Q176.26 147.18 175.93 147.47Q175.59 147.75 175.59 148.19L175.59 148.19Q175.59 148.60 175.94 148.87Q176.30 149.13 177.37 149.34L177.37 149.34Q179.03 149.67 179.84 150.32Q180.64 150.96 180.64 152.09L180.64 152.09Q180.64 153.30 179.61 154.07Q178.57 154.84 176.87 154.84L176.87 154.84Q175.07 154.84 174.03 153.93Q172.99 153.02 173.04 151.86L173.04 151.86L173.06 151.81L175.27 151.81Q175.30 152.53 175.75 152.85Q176.20 153.18 176.92 153.18L176.92 153.18Q177.59 153.18 177.94 152.91Q178.30 152.64 178.30 152.19ZM181.83 150.26L181.83 150.09Q181.83 148.08 182.95 146.80Q184.07 145.51 186.06 145.51L186.06 145.51Q188.05 145.51 189.18 146.79Q190.31 148.07 190.31 150.09L190.31 150.09L190.31 150.26Q190.31 152.29 189.18 153.56Q188.06 154.84 186.07 154.84L186.07 154.84Q184.08 154.84 182.96 153.56Q181.83 152.29 181.83 150.26L181.83 150.26ZM184.25 150.09L184.25 150.26Q184.25 151.49 184.68 152.23Q185.11 152.98 186.07 152.98L186.07 152.98Q187.01 152.98 187.45 152.23Q187.88 151.48 187.88 150.26L187.88 150.26L187.88 150.09Q187.88 148.89 187.44 148.14Q187.00 147.38 186.06 147.38L186.06 147.38Q185.12 147.38 184.68 148.14Q184.25 148.90 184.25 150.09L184.25 150.09ZM197.75 145.68L199.27 150.89L199.37 151.39L199.42 151.39L201.14 145.68L203.75 145.68L200.10 156.01Q199.72 156.97 199.06 157.63Q198.41 158.29 197.10 158.29L197.10 158.29Q196.79 158.29 196.53 158.24Q196.27 158.19 195.89 158.10L195.89 158.10L196.18 156.33Q196.28 156.35 196.41 156.36Q196.53 156.38 196.63 156.38L196.63 156.38Q197.23 156.38 197.55 156.08Q197.88 155.79 198.05 155.35L198.05 155.35L198.33 154.65L195.15 145.68L197.75 145.68ZM204.20 150.26L204.20 150.09Q204.20 148.08 205.32 146.80Q206.44 145.51 208.43 145.51L208.43 145.51Q210.42 145.51 211.55 146.79Q212.68 148.07 212.68 150.09L212.68 150.09L212.68 150.26Q212.68 152.29 211.55 153.56Q210.43 154.84 208.44 154.84L208.44 154.84Q206.45 154.84 205.33 153.56Q204.20 152.29 204.20 150.26L204.20 150.26ZM206.62 150.09L206.62 150.26Q206.62 151.49 207.05 152.23Q207.48 152.98 208.44 152.98L208.44 152.98Q209.38 152.98 209.82 152.23Q210.25 151.48 210.25 150.26L210.25 150.26L210.25 150.09Q210.25 148.89 209.81 148.14Q209.37 147.38 208.43 147.38L208.43 147.38Q207.49 147.38 207.05 148.14Q206.62 148.90 206.62 150.09L206.62 150.09ZM219.87 154.66L219.66 153.37Q219.24 154.07 218.60 154.45Q217.97 154.84 217.13 154.84L217.13 154.84Q215.72 154.84 214.91 153.93Q214.11 153.02 214.11 151.10L214.11 151.10L214.11 145.68L216.53 145.68L216.53 151.12Q216.53 152.10 216.86 152.52Q217.19 152.95 217.84 152.95L217.84 152.95Q218.42 152.95 218.84 152.76Q219.25 152.58 219.52 152.21L219.52 152.21L219.52 145.68L221.94 145.68L221.94 154.66L219.87 154.66ZM231.77 152.98L231.77 152.98Q232.42 152.98 232.81 152.60Q233.20 152.22 233.20 151.59L233.20 151.59L235.40 151.59L235.42 151.64Q235.45 153.00 234.40 153.92Q233.34 154.84 231.77 154.84L231.77 154.84Q229.76 154.84 228.67 153.57Q227.59 152.30 227.59 150.30L227.59 150.30L227.59 150.05Q227.59 148.07 228.67 146.79Q229.75 145.51 231.76 145.51L231.76 145.51Q233.42 145.51 234.44 146.46Q235.45 147.41 235.42 148.95L235.42 148.95L235.40 149.00L233.20 149.00Q233.20 148.30 232.82 147.84Q232.43 147.38 231.76 147.38L231.76 147.38Q230.80 147.38 230.40 148.13Q230.01 148.88 230.01 150.05L230.01 150.05L230.01 150.30Q230.01 151.51 230.40 152.24Q230.80 152.98 231.77 152.98ZM244.49 154.66L242.07 154.66Q241.94 154.35 241.84 154.01Q241.75 153.67 241.71 153.32L241.71 153.32Q241.33 153.97 240.72 154.40Q240.11 154.84 239.26 154.84L239.26 154.84Q237.85 154.84 237.09 154.11Q236.33 153.38 236.33 152.13L236.33 152.13Q236.33 150.81 237.34 150.08Q238.36 149.36 240.31 149.36L240.31 149.36L241.66 149.36L241.66 148.64Q241.66 148.00 241.32 147.64Q240.98 147.28 240.32 147.28L240.32 147.28Q239.73 147.28 239.41 147.57Q239.09 147.85 239.09 148.36L239.09 148.36L236.75 148.35L236.74 148.30Q236.68 147.17 237.73 146.34Q238.78 145.51 240.48 145.51L240.48 145.51Q242.09 145.51 243.09 146.33Q244.10 147.15 244.10 148.66L244.10 148.66L244.10 152.37Q244.10 153.00 244.19 153.56Q244.29 154.11 244.49 154.66L244.49 154.66ZM239.85 153.04L239.85 153.04Q240.49 153.04 240.99 152.73Q241.49 152.41 241.66 152.00L241.66 152.00L241.66 150.73L240.31 150.73Q239.54 150.73 239.14 151.11Q238.74 151.50 238.74 152.05L238.74 152.05Q238.74 152.49 239.04 152.77Q239.34 153.04 239.85 153.04ZM245.89 145.68L248.15 145.68L248.25 146.97Q248.70 146.28 249.36 145.90Q250.01 145.51 250.83 145.51L250.83 145.51Q252.19 145.51 252.95 146.37Q253.72 147.22 253.72 149.05L253.72 149.05L253.72 154.66L251.28 154.66L251.28 149.06Q251.28 148.15 250.92 147.78Q250.55 147.40 249.82 147.40L249.82 147.40Q249.33 147.40 248.95 147.59Q248.57 147.79 248.31 148.14L248.31 148.14L248.31 154.66L245.89 154.66L245.89 145.68ZM267.45 154.66L265.03 154.66Q264.90 154.35 264.80 154.01Q264.71 153.67 264.67 153.32L264.67 153.32Q264.29 153.97 263.68 154.40Q263.07 154.84 262.22 154.84L262.22 154.84Q260.81 154.84 260.05 154.11Q259.29 153.38 259.29 152.13L259.29 152.13Q259.29 150.81 260.30 150.08Q261.32 149.36 263.27 149.36L263.27 149.36L264.62 149.36L264.62 148.64Q264.62 148.00 264.28 147.64Q263.94 147.28 263.28 147.28L263.28 147.28Q262.69 147.28 262.37 147.57Q262.05 147.85 262.05 148.36L262.05 148.36L259.71 148.35L259.70 148.30Q259.64 147.17 260.69 146.34Q261.74 145.51 263.44 145.51L263.44 145.51Q265.05 145.51 266.05 146.33Q267.06 147.15 267.06 148.66L267.06 148.66L267.06 152.37Q267.06 153.00 267.15 153.56Q267.25 154.11 267.45 154.66L267.45 154.66ZM262.81 153.04L262.81 153.04Q263.45 153.04 263.95 152.73Q264.45 152.41 264.62 152.00L264.62 152.00L264.62 150.73L263.27 150.73Q262.50 150.73 262.10 151.11Q261.70 151.50 261.70 152.05L261.70 152.05Q261.70 152.49 262.00 152.77Q262.30 153.04 262.81 153.04ZM268.52 150.42L268.52 150.24Q268.52 148.12 269.43 146.82Q270.35 145.51 272.02 145.51L272.02 145.51Q272.69 145.51 273.23 145.80Q273.77 146.09 274.18 146.63L274.18 146.63L274.18 141.71L276.61 141.71L276.61 154.66L274.53 154.66L274.33 153.57Q273.90 154.19 273.33 154.51Q272.75 154.84 272.00 154.84L272.00 154.84Q270.35 154.84 269.43 153.62Q268.52 152.41 268.52 150.42L268.52 150.42ZM270.93 150.24L270.93 150.42Q270.93 151.60 271.33 152.27Q271.73 152.95 272.63 152.95L272.63 152.95Q273.15 152.95 273.54 152.74Q273.93 152.53 274.18 152.12L274.18 152.12L274.18 148.29Q273.93 147.87 273.54 147.63Q273.16 147.40 272.64 147.40L272.64 147.40Q271.75 147.40 271.34 148.19Q270.93 148.97 270.93 150.24L270.93 150.24ZM278.11 150.42L278.11 150.24Q278.11 148.12 279.03 146.82Q279.95 145.51 281.62 145.51L281.62 145.51Q282.29 145.51 282.83 145.80Q283.37 146.09 283.77 146.63L283.77 146.63L283.77 141.71L286.21 141.71L286.21 154.66L284.12 154.66L283.92 153.57Q283.50 154.19 282.92 154.51Q282.35 154.84 281.60 154.84L281.60 154.84Q279.95 154.84 279.03 153.62Q278.11 152.41 278.11 150.42L278.11 150.42ZM280.53 150.24L280.53 150.42Q280.53 151.60 280.93 152.27Q281.32 152.95 282.22 152.95L282.22 152.95Q282.74 152.95 283.13 152.74Q283.52 152.53 283.77 152.12L283.77 152.12L283.77 148.29Q283.52 147.87 283.14 147.63Q282.75 147.40 282.24 147.40L282.24 147.40Q281.35 147.40 280.94 148.19Q280.53 148.97 280.53 150.24L280.53 150.24ZM294.03 145.68L295.55 150.89L295.65 151.39L295.70 151.39L297.42 145.68L300.03 145.68L296.38 156.01Q296.00 156.97 295.34 157.63Q294.69 158.29 293.38 158.29L293.38 158.29Q293.07 158.29 292.81 158.24Q292.55 158.19 292.17 158.10L292.17 158.10L292.46 156.33Q292.56 156.35 292.69 156.36Q292.81 156.38 292.91 156.38L292.91 156.38Q293.51 156.38 293.83 156.08Q294.16 155.79 294.33 155.35L294.33 155.35L294.61 154.65L291.43 145.68L294.03 145.68ZM300.48 150.26L300.48 150.09Q300.48 148.08 301.60 146.80Q302.72 145.51 304.71 145.51L304.71 145.51Q306.70 145.51 307.83 146.79Q308.96 148.07 308.96 150.09L308.96 150.09L308.96 150.26Q308.96 152.29 307.83 153.56Q306.71 154.84 304.72 154.84L304.72 154.84Q302.73 154.84 301.61 153.56Q300.48 152.29 300.48 150.26L300.48 150.26ZM302.90 150.09L302.90 150.26Q302.90 151.49 303.33 152.23Q303.76 152.98 304.72 152.98L304.72 152.98Q305.66 152.98 306.10 152.23Q306.53 151.48 306.53 150.26L306.53 150.26L306.53 150.09Q306.53 148.89 306.09 148.14Q305.65 147.38 304.71 147.38L304.71 147.38Q303.77 147.38 303.33 148.14Q302.90 148.90 302.90 150.09L302.90 150.09ZM316.15 154.66L315.94 153.37Q315.52 154.07 314.88 154.45Q314.25 154.84 313.42 154.84L313.42 154.84Q312.00 154.84 311.20 153.93Q310.39 153.02 310.39 151.10L310.39 151.10L310.39 145.68L312.81 145.68L312.81 151.12Q312.81 152.10 313.14 152.52Q313.47 152.95 314.12 152.95L314.12 152.95Q314.70 152.95 315.12 152.76Q315.53 152.58 315.80 152.21L315.80 152.21L315.80 145.68L318.22 145.68L318.22 154.66L316.15 154.66ZM325.03 145.61L324.77 147.76L323.88 147.74Q323.34 147.74 322.99 147.96Q322.65 148.19 322.46 148.59L322.46 148.59L322.46 154.66L320.05 154.66L320.05 145.68L322.30 145.68L322.41 147.01Q322.72 146.30 323.22 145.91Q323.73 145.51 324.38 145.51L324.38 145.51Q324.56 145.51 324.72 145.54Q324.87 145.57 325.03 145.61L325.03 145.61ZM329.86 150.26L329.86 150.09Q329.86 148.08 330.98 146.80Q332.10 145.51 334.08 145.51L334.08 145.51Q336.08 145.51 337.21 146.79Q338.33 148.07 338.33 150.09L338.33 150.09L338.33 150.26Q338.33 152.29 337.21 153.56Q336.09 154.84 334.10 154.84L334.10 154.84Q332.11 154.84 330.98 153.56Q329.86 152.29 329.86 150.26L329.86 150.26ZM332.28 150.09L332.28 150.26Q332.28 151.49 332.71 152.23Q333.14 152.98 334.10 152.98L334.10 152.98Q335.04 152.98 335.48 152.23Q335.91 151.48 335.91 150.26L335.91 150.26L335.91 150.09Q335.91 148.89 335.47 148.14Q335.03 147.38 334.08 147.38L334.08 147.38Q333.15 147.38 332.71 148.14Q332.28 148.90 332.28 150.09L332.28 150.09ZM345.95 145.68L347.64 151.45L347.69 151.45L348.86 145.68L351.13 145.68L348.85 154.66L346.83 154.66L345.16 149.32L345.11 149.32L343.44 154.66L341.42 154.66L339.14 145.68L341.41 145.68L342.60 151.43L342.65 151.43L344.33 145.68L345.95 145.68ZM352.30 145.68L354.55 145.68L354.66 146.97Q355.11 146.28 355.77 145.90Q356.42 145.51 357.24 145.51L357.24 145.51Q358.60 145.51 359.36 146.37Q360.12 147.22 360.12 149.05L360.12 149.05L360.12 154.66L357.69 154.66L357.69 149.06Q357.69 148.15 357.33 147.78Q356.96 147.40 356.22 147.40L356.22 147.40Q355.74 147.40 355.36 147.59Q354.98 147.79 354.72 148.14L354.72 148.14L354.72 154.66L352.30 154.66L352.30 145.68ZM374.27 150.24L374.27 150.42Q374.27 152.41 373.35 153.62Q372.43 154.84 370.77 154.84L370.77 154.84Q370.07 154.84 369.52 154.57Q368.97 154.31 368.58 153.81L368.58 153.81L368.58 158.11L366.17 158.11L366.17 145.68L368.35 145.68L368.49 146.74Q368.89 146.15 369.45 145.83Q370.01 145.51 370.76 145.51L370.76 145.51Q372.43 145.51 373.35 146.82Q374.27 148.12 374.27 150.24L374.27 150.24ZM371.84 150.42L371.84 150.24Q371.84 148.97 371.42 148.19Q371.00 147.40 370.13 147.40L370.13 147.40Q369.58 147.40 369.19 147.62Q368.81 147.85 368.58 148.26L368.58 148.26L368.58 152.20Q368.81 152.58 369.19 152.78Q369.58 152.98 370.14 152.98L370.14 152.98Q371.02 152.98 371.43 152.29Q371.84 151.60 371.84 150.42L371.84 150.42ZM378.31 145.68L378.31 154.66L375.89 154.66L375.89 145.68L378.31 145.68ZM378.31 141.71L378.31 143.53L375.89 143.53L375.89 141.71L378.31 141.71ZM384.07 152.98L384.07 152.98Q384.72 152.98 385.11 152.60Q385.50 152.22 385.50 151.59L385.50 151.59L387.70 151.59L387.72 151.64Q387.76 153.00 386.70 153.92Q385.64 154.84 384.07 154.84L384.07 154.84Q382.06 154.84 380.98 153.57Q379.89 152.30 379.89 150.30L379.89 150.30L379.89 150.05Q379.89 148.07 380.97 146.79Q382.05 145.51 384.06 145.51L384.06 145.51Q385.72 145.51 386.74 146.46Q387.76 147.41 387.72 148.95L387.72 148.95L387.71 149.00L385.50 149.00Q385.50 148.30 385.12 147.84Q384.74 147.38 384.06 147.38L384.06 147.38Q383.10 147.38 382.71 148.13Q382.31 148.88 382.31 150.05L382.31 150.05L382.31 150.30Q382.31 151.51 382.71 152.24Q383.10 152.98 384.07 152.98Z" fill="#999999"/></svg>