<svg xmlns="http://www.w3.org/2000/svg" xmlns:xlink="http://www.w3.org/1999/xlink" width="480" height="300" viewBox="0 0 480 300"><rect width="100%" height="100%" fill="#DDDDDD"/><path d="M135.69 169.59L135.69 169.59Q135.69 165.36 132.70 162.80Q129.71 160.23 122.21 157.97L122.21 157.97Q109.14 154.20 102.45 149.02Q95.76 143.84 95.76 134.84L95.76 134.84Q95.76 125.83 103.43 120.13Q111.10 114.42 123.02 114.42L123.02 114.42Q135.09 114.42 142.68 120.83Q150.28 127.24 150.03 136.65L150.03 136.65L149.93 136.95L135.69 136.95Q135.69 131.87 132.30 128.73Q128.90 125.58 122.77 125.58L122.77 125.58Q116.88 125.58 113.66 128.20Q110.45 130.81 110.45 134.89L110.45 134.89Q110.45 138.61 113.89 141.00Q117.34 143.39 125.78 146.05L125.78 146.05Q137.91 149.42 144.14 154.95Q150.38 160.49 150.38 169.49L150.38 169.49Q150.38 178.89 142.96 184.32Q135.54 189.76 123.37 189.76L123.37 189.76Q111.40 189.76 102.50 183.60Q93.60 177.43 93.85 166.32L93.85 166.32L93.95 166.02L108.23 166.02Q108.23 172.56 112.23 175.60Q116.23 178.64 123.37 178.64L123.37 178.64Q129.36 178.64 132.52 176.18Q135.69 173.71 135.69 169.59ZM175.73 110.24L175.73 188.70L161.04 188.70L161.04 110.24L175.73 110.24ZM203.24 134.28L203.24 188.70L188.55 188.70L188.55 134.28L203.24 134.28ZM203.24 110.24L203.24 121.26L188.55 121.26L188.55 110.24L203.24 110.24ZM213.04 163.00L213.04 161.94Q213.04 149.07 218.60 141.17Q224.16 133.28 234.27 133.28L234.27 133.28Q238.34 133.28 241.61 135.04Q244.88 136.80 247.34 140.07L247.34 140.07L247.34 110.24L262.08 110.24L262.08 188.70L249.46 188.70L248.25 182.06Q245.68 185.83 242.19 187.80Q238.69 189.76 234.17 189.76L234.17 189.76Q224.16 189.76 218.60 182.41Q213.04 175.07 213.04 163.00L213.04 163.00ZM227.68 161.94L227.68 163.00Q227.68 170.14 230.09 174.24Q232.51 178.34 237.94 178.34L237.94 178.34Q241.11 178.34 243.47 177.06Q245.83 175.78 247.34 173.31L247.34 173.31L247.34 150.13Q245.83 147.56 243.50 146.13Q241.16 144.69 238.04 144.69L238.04 144.69Q232.66 144.69 230.17 149.47Q227.68 154.25 227.68 161.94L227.68 161.94ZM297.54 189.76L297.54 189.76Q285.77 189.76 278.73 182.21Q271.68 174.67 271.68 163.05L271.68 163.05L271.68 161.04Q271.68 148.92 278.35 141.07Q285.01 133.23 296.23 133.28L296.23 133.28Q307.24 133.28 313.33 139.92Q319.41 146.55 319.41 157.87L319.41 157.87L319.41 165.87L286.92 165.87L286.82 166.17Q287.23 171.55 290.42 175.02Q293.61 178.49 299.09 178.49L299.09 178.49Q303.97 178.49 307.19 177.51Q310.41 176.53 314.23 174.42L314.23 174.42L318.21 183.47Q314.89 186.19 309.50 187.97Q304.12 189.76 297.54 189.76ZM296.23 144.59L296.23 144.59Q292.15 144.59 289.79 147.71Q287.43 150.83 286.87 155.91L286.87 155.91L287.02 156.16L305.03 156.16L305.03 154.85Q305.03 150.18 302.84 147.38Q300.65 144.59 296.23 144.59ZM386.15 115.47L386.15 188.70L371.47 188.70L371.47 128.45L356.58 128.45L356.58 118.09L386.15 115.47Z" fill="#999999"/></svg>