<svg xmlns="http://www.w3.org/2000/svg" xmlns:xlink="http://www.w3.org/1999/xlink" width="480" height="300" viewBox="0 0 480 300"><rect width="100%" height="100%" fill="#DDDDDD"/><path d="M134.24 168.45L134.24 168.45Q134.24 164.47 131.42 162.05Q128.60 159.64 121.54 157.51L121.54 157.51Q109.23 153.95 102.93 149.08Q96.63 144.20 96.63 135.72L96.63 135.72Q96.63 127.24 103.85 121.87Q111.08 116.49 122.30 116.49L122.30 116.49Q133.67 116.49 140.82 122.53Q147.97 128.57 147.74 137.43L147.74 137.43L147.64 137.71L134.24 137.71Q134.24 132.93 131.04 129.97Q127.84 127.01 122.07 127.01L122.07 127.01Q116.52 127.01 113.49 129.47Q110.46 131.93 110.46 135.77L110.46 135.77Q110.46 139.27 113.71 141.52Q116.95 143.77 124.91 146.28L124.91 146.28Q136.32 149.46 142.19 154.67Q148.07 159.88 148.07 168.35L148.07 168.35Q148.07 177.21 141.08 182.33Q134.10 187.44 122.63 187.44L122.63 187.44Q111.36 187.44 102.98 181.64Q94.59 175.84 94.83 165.37L94.83 165.37L94.93 165.09L108.38 165.09Q108.38 171.24 112.14 174.11Q115.91 176.97 122.63 176.97L122.63 176.97Q128.27 176.97 131.25 174.65Q134.24 172.33 134.24 168.45ZM171.94 112.56L171.94 186.45L158.11 186.45L158.11 112.56L171.94 112.56ZM197.85 135.20L197.85 186.45L184.02 186.45L184.02 135.20L197.85 135.20ZM197.85 112.56L197.85 122.93L184.02 122.93L184.02 112.56L197.85 112.56ZM207.08 162.24L207.08 161.25Q207.08 149.12 212.32 141.69Q217.55 134.25 227.07 134.25L227.07 134.25Q230.91 134.25 233.98 135.91Q237.06 137.57 239.38 140.65L239.38 140.65L239.38 112.56L253.26 112.56L253.26 186.45L241.37 186.45L240.24 180.19Q237.82 183.75 234.53 185.59Q231.24 187.44 226.98 187.44L226.98 187.44Q217.55 187.44 212.32 180.53Q207.08 173.61 207.08 162.24L207.08 162.24ZM220.87 161.25L220.87 162.24Q220.87 168.97 223.14 172.83Q225.41 176.69 230.53 176.69L230.53 176.69Q233.51 176.69 235.74 175.48Q237.96 174.27 239.38 171.95L239.38 171.95L239.38 150.12Q237.96 147.70 235.76 146.35Q233.56 145.00 230.62 145.00L230.62 145.00Q225.55 145.00 223.21 149.50Q220.87 154.00 220.87 161.25L220.87 161.25ZM286.65 187.44L286.65 187.44Q275.57 187.44 268.94 180.34Q262.31 173.23 262.31 162.29L262.31 162.29L262.31 160.40Q262.31 148.98 268.58 141.59Q274.86 134.20 285.42 134.25L285.42 134.25Q295.79 134.25 301.52 140.50Q307.26 146.76 307.26 157.41L307.26 157.41L307.26 164.94L276.66 164.94L276.56 165.23Q276.94 170.30 279.95 173.56Q282.96 176.83 288.12 176.83L288.12 176.83Q292.72 176.83 295.75 175.91Q298.78 174.98 302.38 172.99L302.38 172.99L306.12 181.52Q302.99 184.08 297.93 185.76Q292.86 187.44 286.65 187.44ZM285.42 144.91L285.42 144.91Q281.58 144.91 279.36 147.84Q277.13 150.78 276.61 155.57L276.61 155.57L276.75 155.80L293.71 155.80L293.71 154.57Q293.71 150.17 291.65 147.54Q289.59 144.91 285.42 144.91ZM352.82 156.47L352.82 146.09L360.59 146.09Q365.51 146.09 367.88 143.51Q370.25 140.93 370.25 136.34L370.25 136.34Q370.25 132.17 367.88 129.66Q365.51 127.15 361.01 127.15L361.01 127.15Q357.13 127.15 354.48 129.42Q351.82 131.69 351.82 135.39L351.82 135.39L338.42 135.39L338.33 135.10Q338.04 127.01 344.53 121.75Q351.02 116.49 360.63 116.49L360.63 116.49Q371.34 116.49 377.71 121.61Q384.08 126.72 384.08 136.19L384.08 136.19Q384.08 140.69 381.24 144.74Q378.40 148.79 373.42 151.07L373.42 151.07Q379.15 153.10 382.16 157.32Q385.17 161.53 385.17 167.12L385.17 167.12Q385.17 176.59 378.28 182.02Q371.39 187.44 360.63 187.44L360.63 187.44Q351.02 187.44 344.13 182.35Q337.24 177.26 337.47 167.97L337.47 167.97L337.57 167.69L350.97 167.69Q350.97 171.67 353.81 174.25Q356.66 176.83 361.01 176.83L361.01 176.83Q365.80 176.83 368.57 174.18Q371.34 171.53 371.34 166.98L371.34 166.98Q371.34 161.53 368.61 159.00Q365.89 156.47 360.59 156.47L360.59 156.47L352.82 156.47Z" fill="#999999"/></svg>