<svg xmlns="http://www.w3.org/2000/svg" xmlns:xlink="http://www.w3.org/1999/xlink" width="480" height="300" viewBox="0 0 480 300"><rect width="100%" height="100%" fill="#DDDDDD"/><path d="M133.22 168.45L133.22 168.45Q133.22 164.47 130.40 162.05Q127.58 159.64 120.53 157.51L120.53 157.51Q108.21 153.95 101.91 149.08Q95.61 144.20 95.61 135.72L95.61 135.72Q95.61 127.24 102.84 121.87Q110.06 116.49 121.28 116.49L121.28 116.49Q132.65 116.49 139.80 122.53Q146.95 128.57 146.72 137.43L146.72 137.43L146.62 137.71L133.22 137.71Q133.22 132.93 130.02 129.97Q126.83 127.01 121.05 127.01L121.05 127.01Q115.51 127.01 112.47 129.47Q109.44 131.93 109.44 135.77L109.44 135.77Q109.44 139.27 112.69 141.52Q115.93 143.77 123.89 146.28L123.89 146.28Q135.30 149.46 141.18 154.67Q147.05 159.88 147.05 168.35L147.05 168.35Q147.05 177.21 140.06 182.33Q133.08 187.44 121.62 187.44L121.62 187.44Q110.34 187.44 101.96 181.64Q93.58 175.84 93.81 165.37L93.81 165.37L93.91 165.09L107.36 165.09Q107.36 171.24 111.12 174.11Q114.89 176.97 121.62 176.97L121.62 176.97Q127.25 176.97 130.24 174.65Q133.22 172.33 133.22 168.45ZM170.92 112.56L170.92 186.45L157.09 186.45L157.09 112.56L170.92 112.56ZM196.83 135.20L196.83 186.45L183.00 186.45L183.00 135.20L196.83 135.20ZM196.83 112.56L196.83 122.93L183.00 122.93L183.00 112.56L196.83 112.56ZM206.06 162.24L206.06 161.25Q206.06 149.12 211.30 141.69Q216.53 134.25 226.05 134.25L226.05 134.25Q229.89 134.25 232.97 135.91Q236.05 137.57 238.37 140.65L238.37 140.65L238.37 112.56L252.24 112.56L252.24 186.45L240.36 186.45L239.22 180.19Q236.80 183.75 233.51 185.59Q230.22 187.44 225.96 187.44L225.96 187.44Q216.53 187.44 211.30 180.53Q206.06 173.61 206.06 162.24L206.06 162.24ZM219.85 161.25L219.85 162.24Q219.85 168.97 222.12 172.83Q224.39 176.69 229.51 176.69L229.51 176.69Q232.49 176.69 234.72 175.48Q236.95 174.27 238.37 171.95L238.37 171.95L238.37 150.12Q236.95 147.70 234.74 146.35Q232.54 145.00 229.60 145.00L229.60 145.00Q224.54 145.00 222.19 149.50Q219.85 154.00 219.85 161.25L219.85 161.25ZM285.63 187.44L285.63 187.44Q274.55 187.44 267.92 180.34Q261.29 173.23 261.29 162.29L261.29 162.29L261.29 160.40Q261.29 148.98 267.57 141.59Q273.84 134.20 284.40 134.25L284.40 134.25Q294.78 134.25 300.51 140.50Q306.24 146.76 306.24 157.41L306.24 157.41L306.24 164.94L275.64 164.94L275.55 165.23Q275.93 170.30 278.93 173.56Q281.94 176.83 287.10 176.83L287.10 176.83Q291.70 176.83 294.73 175.91Q297.76 174.98 301.36 172.99L301.36 172.99L305.10 181.52Q301.97 184.08 296.91 185.76Q291.84 187.44 285.63 187.44ZM284.40 144.91L284.40 144.91Q280.57 144.91 278.34 147.84Q276.11 150.78 275.59 155.57L275.59 155.57L275.74 155.80L292.69 155.80L292.69 154.57Q292.69 150.17 290.63 147.54Q288.57 144.91 284.40 144.91ZM378.37 117.49L378.37 160.78L386.19 160.78L386.19 171.48L378.37 171.48L378.37 186.45L364.59 186.45L364.59 171.48L336.46 171.48L335.84 163.19L364.45 117.49L378.37 117.49ZM363.22 137.80L348.72 160.78L364.59 160.78L364.59 135.96L364.30 135.86L363.22 137.80Z" fill="#999999"/></svg>